<mxfile host="app.diagrams.net" modified="2023-06-13T17:02:29.422Z" agent="Mozilla/5.0 (Windows NT 10.0; Win64; x64) AppleWebKit/537.36 (KHTML, like Gecko) Chrome/114.0.0.0 Safari/537.36" etag="nnharWp0N9Qr_U_A0U6x" version="21.3.8" type="google">
  <diagram name="PÃ¡gina-1" id="Z11ON_kZdrPfms-_QP6M">
    <mxGraphModel grid="1" page="1" gridSize="10" guides="1" tooltips="1" connect="1" arrows="1" fold="1" pageScale="1" pageWidth="827" pageHeight="1169" math="0" shadow="0">
      <root>
        <mxCell id="0" />
        <mxCell id="1" parent="0" />
        <mxCell id="_X4OMeSLZAAU-v7Vs8h3-1" value="Muestra1" style="swimlane;fontStyle=0;childLayout=stackLayout;horizontal=1;startSize=30;horizontalStack=0;resizeParent=1;resizeParentMax=0;resizeLast=0;collapsible=1;marginBottom=0;whiteSpace=wrap;html=1;" vertex="1" parent="1">
          <mxGeometry x="40" y="170" width="140" height="60" as="geometry" />
        </mxCell>
        <mxCell id="_X4OMeSLZAAU-v7Vs8h3-2" value="Sonda 1 - Gen 1" style="text;strokeColor=none;fillColor=none;align=left;verticalAlign=middle;spacingLeft=4;spacingRight=4;overflow=hidden;points=[[0,0.5],[1,0.5]];portConstraint=eastwest;rotatable=0;whiteSpace=wrap;html=1;" vertex="1" parent="_X4OMeSLZAAU-v7Vs8h3-1">
          <mxGeometry y="30" width="140" height="30" as="geometry" />
        </mxCell>
        <mxCell id="_X4OMeSLZAAU-v7Vs8h3-5" value="Muestra3" style="swimlane;fontStyle=0;childLayout=stackLayout;horizontal=1;startSize=30;horizontalStack=0;resizeParent=1;resizeParentMax=0;resizeLast=0;collapsible=1;marginBottom=0;whiteSpace=wrap;html=1;" vertex="1" parent="1">
          <mxGeometry x="40" y="525" width="140" height="60" as="geometry" />
        </mxCell>
        <mxCell id="_X4OMeSLZAAU-v7Vs8h3-8" value="Sonda 2 - Gen 1" style="text;strokeColor=none;fillColor=none;align=left;verticalAlign=middle;spacingLeft=4;spacingRight=4;overflow=hidden;points=[[0,0.5],[1,0.5]];portConstraint=eastwest;rotatable=0;whiteSpace=wrap;html=1;" vertex="1" parent="_X4OMeSLZAAU-v7Vs8h3-5">
          <mxGeometry y="30" width="140" height="30" as="geometry" />
        </mxCell>
        <mxCell id="_X4OMeSLZAAU-v7Vs8h3-9" value="Muestra2" style="swimlane;fontStyle=0;childLayout=stackLayout;horizontal=1;startSize=30;horizontalStack=0;resizeParent=1;resizeParentMax=0;resizeLast=0;collapsible=1;marginBottom=0;whiteSpace=wrap;html=1;" vertex="1" parent="1">
          <mxGeometry x="40" y="310" width="140" height="90" as="geometry" />
        </mxCell>
        <mxCell id="_X4OMeSLZAAU-v7Vs8h3-10" value="Sonda 1 - Gen 1" style="text;strokeColor=none;fillColor=none;align=left;verticalAlign=middle;spacingLeft=4;spacingRight=4;overflow=hidden;points=[[0,0.5],[1,0.5]];portConstraint=eastwest;rotatable=0;whiteSpace=wrap;html=1;" vertex="1" parent="_X4OMeSLZAAU-v7Vs8h3-9">
          <mxGeometry y="30" width="140" height="30" as="geometry" />
        </mxCell>
        <mxCell id="_X4OMeSLZAAU-v7Vs8h3-11" value="Sonda 2 - Gen 1" style="text;strokeColor=none;fillColor=none;align=left;verticalAlign=middle;spacingLeft=4;spacingRight=4;overflow=hidden;points=[[0,0.5],[1,0.5]];portConstraint=eastwest;rotatable=0;whiteSpace=wrap;html=1;" vertex="1" parent="_X4OMeSLZAAU-v7Vs8h3-9">
          <mxGeometry y="60" width="140" height="30" as="geometry" />
        </mxCell>
        <mxCell id="_X4OMeSLZAAU-v7Vs8h3-13" value="Muestra4" style="swimlane;fontStyle=0;childLayout=stackLayout;horizontal=1;startSize=30;horizontalStack=0;resizeParent=1;resizeParentMax=0;resizeLast=0;collapsible=1;marginBottom=0;whiteSpace=wrap;html=1;" vertex="1" parent="1">
          <mxGeometry x="40" y="630" width="140" height="90" as="geometry" />
        </mxCell>
        <mxCell id="_X4OMeSLZAAU-v7Vs8h3-15" value="Sonda 2 - Gen 1" style="text;strokeColor=none;fillColor=none;align=left;verticalAlign=middle;spacingLeft=4;spacingRight=4;overflow=hidden;points=[[0,0.5],[1,0.5]];portConstraint=eastwest;rotatable=0;whiteSpace=wrap;html=1;" vertex="1" parent="_X4OMeSLZAAU-v7Vs8h3-13">
          <mxGeometry y="30" width="140" height="30" as="geometry" />
        </mxCell>
        <mxCell id="_X4OMeSLZAAU-v7Vs8h3-39" value="Sonda 3 - Gen 2" style="text;strokeColor=none;fillColor=none;align=left;verticalAlign=middle;spacingLeft=4;spacingRight=4;overflow=hidden;points=[[0,0.5],[1,0.5]];portConstraint=eastwest;rotatable=0;whiteSpace=wrap;html=1;" vertex="1" parent="_X4OMeSLZAAU-v7Vs8h3-13">
          <mxGeometry y="60" width="140" height="30" as="geometry" />
        </mxCell>
        <mxCell id="_X4OMeSLZAAU-v7Vs8h3-18" value="GRUPO 1" style="text;html=1;strokeColor=none;fillColor=none;align=center;verticalAlign=middle;whiteSpace=wrap;rounded=0;" vertex="1" parent="1">
          <mxGeometry x="78" y="114" width="60" height="30" as="geometry" />
        </mxCell>
        <mxCell id="_X4OMeSLZAAU-v7Vs8h3-19" value="GRUPO 2" style="text;html=1;strokeColor=none;fillColor=none;align=center;verticalAlign=middle;whiteSpace=wrap;rounded=0;" vertex="1" parent="1">
          <mxGeometry x="80" y="480" width="60" height="30" as="geometry" />
        </mxCell>
        <mxCell id="_X4OMeSLZAAU-v7Vs8h3-21" value="Avisar" style="edgeStyle=orthogonalEdgeStyle;rounded=0;orthogonalLoop=1;jettySize=auto;html=1;entryX=0;entryY=0.5;entryDx=0;entryDy=0;startArrow=block;startFill=1;" edge="1" parent="1" source="_X4OMeSLZAAU-v7Vs8h3-2" target="_X4OMeSLZAAU-v7Vs8h3-10">
          <mxGeometry relative="1" as="geometry" />
        </mxCell>
        <mxCell id="_X4OMeSLZAAU-v7Vs8h3-22" value="GRUPO 1" style="swimlane;fontStyle=0;childLayout=stackLayout;horizontal=1;startSize=30;horizontalStack=0;resizeParent=1;resizeParentMax=0;resizeLast=0;collapsible=1;marginBottom=0;whiteSpace=wrap;html=1;" vertex="1" parent="1">
          <mxGeometry x="240" y="230" width="160" height="90" as="geometry" />
        </mxCell>
        <mxCell id="_X4OMeSLZAAU-v7Vs8h3-23" value="Sonda 1 - Gen 1 (2 sondas)" style="text;strokeColor=none;fillColor=none;align=left;verticalAlign=middle;spacingLeft=4;spacingRight=4;overflow=hidden;points=[[0,0.5],[1,0.5]];portConstraint=eastwest;rotatable=0;whiteSpace=wrap;html=1;" vertex="1" parent="_X4OMeSLZAAU-v7Vs8h3-22">
          <mxGeometry y="30" width="160" height="30" as="geometry" />
        </mxCell>
        <mxCell id="_X4OMeSLZAAU-v7Vs8h3-26" value="Sonda 2 - Gen 1 (1 sonda)" style="text;strokeColor=none;fillColor=none;align=left;verticalAlign=middle;spacingLeft=4;spacingRight=4;overflow=hidden;points=[[0,0.5],[1,0.5]];portConstraint=eastwest;rotatable=0;whiteSpace=wrap;html=1;" vertex="1" parent="_X4OMeSLZAAU-v7Vs8h3-22">
          <mxGeometry y="60" width="160" height="30" as="geometry" />
        </mxCell>
        <mxCell id="_X4OMeSLZAAU-v7Vs8h3-27" style="edgeStyle=orthogonalEdgeStyle;rounded=0;orthogonalLoop=1;jettySize=auto;html=1;entryX=0;entryY=0.5;entryDx=0;entryDy=0;" edge="1" parent="1" source="_X4OMeSLZAAU-v7Vs8h3-2" target="_X4OMeSLZAAU-v7Vs8h3-23">
          <mxGeometry relative="1" as="geometry" />
        </mxCell>
        <mxCell id="_X4OMeSLZAAU-v7Vs8h3-30" value="Promedio" style="edgeLabel;html=1;align=center;verticalAlign=middle;resizable=0;points=[];" connectable="0" vertex="1" parent="_X4OMeSLZAAU-v7Vs8h3-27">
          <mxGeometry x="0.4588" y="-3" relative="1" as="geometry">
            <mxPoint y="-13" as="offset" />
          </mxGeometry>
        </mxCell>
        <mxCell id="_X4OMeSLZAAU-v7Vs8h3-29" style="edgeStyle=orthogonalEdgeStyle;rounded=0;orthogonalLoop=1;jettySize=auto;html=1;entryX=0;entryY=0.5;entryDx=0;entryDy=0;" edge="1" parent="1" source="_X4OMeSLZAAU-v7Vs8h3-10" target="_X4OMeSLZAAU-v7Vs8h3-23">
          <mxGeometry relative="1" as="geometry" />
        </mxCell>
        <mxCell id="_X4OMeSLZAAU-v7Vs8h3-60" style="edgeStyle=orthogonalEdgeStyle;rounded=0;orthogonalLoop=1;jettySize=auto;html=1;entryX=0.4;entryY=-0.033;entryDx=0;entryDy=0;entryPerimeter=0;" edge="1" parent="1" source="_X4OMeSLZAAU-v7Vs8h3-33" target="_X4OMeSLZAAU-v7Vs8h3-58">
          <mxGeometry relative="1" as="geometry" />
        </mxCell>
        <mxCell id="_X4OMeSLZAAU-v7Vs8h3-33" value="GRUPO 1" style="swimlane;fontStyle=0;childLayout=stackLayout;horizontal=1;startSize=30;horizontalStack=0;resizeParent=1;resizeParentMax=0;resizeLast=0;collapsible=1;marginBottom=0;whiteSpace=wrap;html=1;" vertex="1" parent="1">
          <mxGeometry x="545" y="257" width="200" height="60" as="geometry" />
        </mxCell>
        <mxCell id="_X4OMeSLZAAU-v7Vs8h3-35" value="Gen 1 (dos sondas 1, una sonda 2)" style="text;strokeColor=none;fillColor=none;align=left;verticalAlign=middle;spacingLeft=4;spacingRight=4;overflow=hidden;points=[[0,0.5],[1,0.5]];portConstraint=eastwest;rotatable=0;whiteSpace=wrap;html=1;" vertex="1" parent="_X4OMeSLZAAU-v7Vs8h3-33">
          <mxGeometry y="30" width="200" height="30" as="geometry" />
        </mxCell>
        <mxCell id="_X4OMeSLZAAU-v7Vs8h3-37" value="Promedio&lt;br&gt;&amp;nbsp;pesado" style="edgeLabel;html=1;align=center;verticalAlign=middle;resizable=0;points=[];" connectable="0" vertex="1" parent="1">
          <mxGeometry x="495" y="287" as="geometry" />
        </mxCell>
        <mxCell id="_X4OMeSLZAAU-v7Vs8h3-32" style="edgeStyle=orthogonalEdgeStyle;rounded=0;orthogonalLoop=1;jettySize=auto;html=1;entryX=0;entryY=0.5;entryDx=0;entryDy=0;" edge="1" parent="1" target="_X4OMeSLZAAU-v7Vs8h3-33">
          <mxGeometry relative="1" as="geometry">
            <mxPoint x="427" y="287" as="targetPoint" />
            <mxPoint x="457" y="287" as="sourcePoint" />
          </mxGeometry>
        </mxCell>
        <mxCell id="_X4OMeSLZAAU-v7Vs8h3-38" value="Filtrar?" style="endArrow=classic;startArrow=classic;html=1;rounded=0;exitX=1;exitY=0.5;exitDx=0;exitDy=0;" edge="1" parent="1" source="_X4OMeSLZAAU-v7Vs8h3-26">
          <mxGeometry width="50" height="50" relative="1" as="geometry">
            <mxPoint x="350" y="320" as="sourcePoint" />
            <mxPoint x="400" y="270" as="targetPoint" />
            <Array as="points">
              <mxPoint x="440" y="290" />
            </Array>
          </mxGeometry>
        </mxCell>
        <mxCell id="_X4OMeSLZAAU-v7Vs8h3-40" value="GRUPO 2" style="swimlane;fontStyle=0;childLayout=stackLayout;horizontal=1;startSize=30;horizontalStack=0;resizeParent=1;resizeParentMax=0;resizeLast=0;collapsible=1;marginBottom=0;whiteSpace=wrap;html=1;" vertex="1" parent="1">
          <mxGeometry x="245" y="585" width="160" height="90" as="geometry" />
        </mxCell>
        <mxCell id="_X4OMeSLZAAU-v7Vs8h3-41" value="Sonda 2 - Gen 1 (2 sondas)" style="text;strokeColor=none;fillColor=none;align=left;verticalAlign=middle;spacingLeft=4;spacingRight=4;overflow=hidden;points=[[0,0.5],[1,0.5]];portConstraint=eastwest;rotatable=0;whiteSpace=wrap;html=1;" vertex="1" parent="_X4OMeSLZAAU-v7Vs8h3-40">
          <mxGeometry y="30" width="160" height="30" as="geometry" />
        </mxCell>
        <mxCell id="_X4OMeSLZAAU-v7Vs8h3-42" value="Sonda 3 - Gen 2 (1 sonda)" style="text;strokeColor=none;fillColor=none;align=left;verticalAlign=middle;spacingLeft=4;spacingRight=4;overflow=hidden;points=[[0,0.5],[1,0.5]];portConstraint=eastwest;rotatable=0;whiteSpace=wrap;html=1;" vertex="1" parent="_X4OMeSLZAAU-v7Vs8h3-40">
          <mxGeometry y="60" width="160" height="30" as="geometry" />
        </mxCell>
        <mxCell id="_X4OMeSLZAAU-v7Vs8h3-43" style="edgeStyle=orthogonalEdgeStyle;rounded=0;orthogonalLoop=1;jettySize=auto;html=1;entryX=0;entryY=0.5;entryDx=0;entryDy=0;" edge="1" parent="1" source="_X4OMeSLZAAU-v7Vs8h3-15" target="_X4OMeSLZAAU-v7Vs8h3-41">
          <mxGeometry relative="1" as="geometry" />
        </mxCell>
        <mxCell id="_X4OMeSLZAAU-v7Vs8h3-45" style="edgeStyle=orthogonalEdgeStyle;rounded=0;orthogonalLoop=1;jettySize=auto;html=1;entryX=0;entryY=0.5;entryDx=0;entryDy=0;" edge="1" parent="1" source="_X4OMeSLZAAU-v7Vs8h3-8" target="_X4OMeSLZAAU-v7Vs8h3-41">
          <mxGeometry relative="1" as="geometry" />
        </mxCell>
        <mxCell id="_X4OMeSLZAAU-v7Vs8h3-46" value="Promedio" style="edgeLabel;html=1;align=center;verticalAlign=middle;resizable=0;points=[];" connectable="0" vertex="1" parent="_X4OMeSLZAAU-v7Vs8h3-45">
          <mxGeometry x="0.1784" y="2" relative="1" as="geometry">
            <mxPoint as="offset" />
          </mxGeometry>
        </mxCell>
        <mxCell id="_X4OMeSLZAAU-v7Vs8h3-47" style="edgeStyle=orthogonalEdgeStyle;rounded=0;orthogonalLoop=1;jettySize=auto;html=1;entryX=0;entryY=0.5;entryDx=0;entryDy=0;startArrow=classic;startFill=1;" edge="1" parent="1" source="_X4OMeSLZAAU-v7Vs8h3-8" target="_X4OMeSLZAAU-v7Vs8h3-15">
          <mxGeometry relative="1" as="geometry" />
        </mxCell>
        <mxCell id="_X4OMeSLZAAU-v7Vs8h3-48" value="Avisar" style="edgeLabel;html=1;align=center;verticalAlign=middle;resizable=0;points=[];" connectable="0" vertex="1" parent="_X4OMeSLZAAU-v7Vs8h3-47">
          <mxGeometry x="-0.269" y="1" relative="1" as="geometry">
            <mxPoint as="offset" />
          </mxGeometry>
        </mxCell>
        <mxCell id="_X4OMeSLZAAU-v7Vs8h3-49" value="" style="endArrow=classic;html=1;rounded=0;" edge="1" parent="1">
          <mxGeometry width="50" height="50" relative="1" as="geometry">
            <mxPoint x="600" y="755" as="sourcePoint" />
            <mxPoint x="616.25" y="690" as="targetPoint" />
          </mxGeometry>
        </mxCell>
        <mxCell id="_X4OMeSLZAAU-v7Vs8h3-50" value="Descarto?" style="text;html=1;strokeColor=none;fillColor=none;align=center;verticalAlign=middle;whiteSpace=wrap;rounded=0;" vertex="1" parent="1">
          <mxGeometry x="570" y="745" width="60" height="30" as="geometry" />
        </mxCell>
        <mxCell id="_X4OMeSLZAAU-v7Vs8h3-59" style="edgeStyle=orthogonalEdgeStyle;rounded=0;orthogonalLoop=1;jettySize=auto;html=1;" edge="1" parent="1" source="_X4OMeSLZAAU-v7Vs8h3-51" target="_X4OMeSLZAAU-v7Vs8h3-58">
          <mxGeometry relative="1" as="geometry" />
        </mxCell>
        <mxCell id="_X4OMeSLZAAU-v7Vs8h3-51" value="GRUPO 2" style="swimlane;fontStyle=0;childLayout=stackLayout;horizontal=1;startSize=30;horizontalStack=0;resizeParent=1;resizeParentMax=0;resizeLast=0;collapsible=1;marginBottom=0;whiteSpace=wrap;html=1;" vertex="1" parent="1">
          <mxGeometry x="551" y="600" width="200" height="90" as="geometry" />
        </mxCell>
        <mxCell id="_X4OMeSLZAAU-v7Vs8h3-52" value="Gen 1 (dos sondas 2)" style="text;strokeColor=none;fillColor=none;align=left;verticalAlign=middle;spacingLeft=4;spacingRight=4;overflow=hidden;points=[[0,0.5],[1,0.5]];portConstraint=eastwest;rotatable=0;whiteSpace=wrap;html=1;" vertex="1" parent="_X4OMeSLZAAU-v7Vs8h3-51">
          <mxGeometry y="30" width="200" height="30" as="geometry" />
        </mxCell>
        <mxCell id="_X4OMeSLZAAU-v7Vs8h3-56" value="Gen 2 (una sonda 3)" style="text;strokeColor=none;fillColor=none;align=left;verticalAlign=middle;spacingLeft=4;spacingRight=4;overflow=hidden;points=[[0,0.5],[1,0.5]];portConstraint=eastwest;rotatable=0;whiteSpace=wrap;html=1;" vertex="1" parent="_X4OMeSLZAAU-v7Vs8h3-51">
          <mxGeometry y="60" width="200" height="30" as="geometry" />
        </mxCell>
        <mxCell id="_X4OMeSLZAAU-v7Vs8h3-53" value="Promedio&lt;br&gt;&amp;nbsp;pesado" style="edgeLabel;html=1;align=center;verticalAlign=middle;resizable=0;points=[];" connectable="0" vertex="1" parent="1">
          <mxGeometry x="501" y="644" as="geometry" />
        </mxCell>
        <mxCell id="_X4OMeSLZAAU-v7Vs8h3-54" style="edgeStyle=orthogonalEdgeStyle;rounded=0;orthogonalLoop=1;jettySize=auto;html=1;entryX=0;entryY=0.5;entryDx=0;entryDy=0;exitX=1.019;exitY=0;exitDx=0;exitDy=0;exitPerimeter=0;" edge="1" parent="1" source="_X4OMeSLZAAU-v7Vs8h3-42" target="_X4OMeSLZAAU-v7Vs8h3-51">
          <mxGeometry relative="1" as="geometry">
            <mxPoint x="433" y="644" as="targetPoint" />
            <mxPoint x="463" y="644" as="sourcePoint" />
            <Array as="points">
              <mxPoint x="450" y="645" />
              <mxPoint x="450" y="645" />
            </Array>
          </mxGeometry>
        </mxCell>
        <mxCell id="_X4OMeSLZAAU-v7Vs8h3-58" value="RESULTADOS" style="text;html=1;strokeColor=none;fillColor=none;align=center;verticalAlign=middle;whiteSpace=wrap;rounded=0;" vertex="1" parent="1">
          <mxGeometry x="621" y="440" width="60" height="30" as="geometry" />
        </mxCell>
        <mxCell id="_X4OMeSLZAAU-v7Vs8h3-64" value="Filtrado&lt;br&gt;especie" style="text;html=1;strokeColor=none;fillColor=none;align=center;verticalAlign=middle;whiteSpace=wrap;rounded=0;" vertex="1" parent="1">
          <mxGeometry x="185" y="140" width="60" height="30" as="geometry" />
        </mxCell>
        <mxCell id="_X4OMeSLZAAU-v7Vs8h3-65" value="" style="endArrow=none;dashed=1;html=1;dashPattern=1 3;strokeWidth=2;rounded=0;entryX=0.5;entryY=1;entryDx=0;entryDy=0;" edge="1" parent="1" target="_X4OMeSLZAAU-v7Vs8h3-64">
          <mxGeometry width="50" height="50" relative="1" as="geometry">
            <mxPoint x="210" y="860" as="sourcePoint" />
            <mxPoint x="380" y="370" as="targetPoint" />
          </mxGeometry>
        </mxCell>
      </root>
    </mxGraphModel>
  </diagram>
</mxfile>
